<?xml version="1.0" encoding="UTF-8" standalone="no"?>
<!-- Generator: Adobe Illustrator 16.2.0, SVG Export Plug-In . SVG Version: 6.00 Build 0)  -->

<svg
   xmlns:dc="http://purl.org/dc/elements/1.1/"
   xmlns:cc="http://creativecommons.org/ns#"
   xmlns:rdf="http://www.w3.org/1999/02/22-rdf-syntax-ns#"
   xmlns:svg="http://www.w3.org/2000/svg"
   xmlns="http://www.w3.org/2000/svg"
   xmlns:xlink="http://www.w3.org/1999/xlink"
   xmlns:sodipodi="http://sodipodi.sourceforge.net/DTD/sodipodi-0.dtd"
   xmlns:inkscape="http://www.inkscape.org/namespaces/inkscape"
   version="1.1"
   id="Layer_1"
   x="0px"
   y="0px"
   width="612px"
   height="792px"
   viewBox="0 0 612 792"
   enable-background="new 0 0 612 792"
   xml:space="preserve"
   inkscape:version="0.91 r13725"
   sodipodi:docname="Component.svg"><metadata
     id="metadata3521"><rdf:RDF><cc:Work
         rdf:about=""><dc:format>image/svg+xml</dc:format><dc:type
           rdf:resource="http://purl.org/dc/dcmitype/StillImage" /></cc:Work></rdf:RDF></metadata><defs
     id="defs3519" /><sodipodi:namedview
     pagecolor="#ffffff"
     bordercolor="#666666"
     borderopacity="1"
     objecttolerance="10"
     gridtolerance="10"
     guidetolerance="10"
     inkscape:pageopacity="0"
     inkscape:pageshadow="2"
     inkscape:window-width="1920"
     inkscape:window-height="1017"
     id="namedview3517"
     showgrid="false"
     inkscape:zoom="0.42140707"
     inkscape:cx="-149.92563"
     inkscape:cy="660.00207"
     inkscape:window-x="-8"
     inkscape:window-y="-8"
     inkscape:window-maximized="1"
     inkscape:current-layer="Layer_1" /><g
     id="g3449"><defs
       id="defs3451"><rect
         id="SVGID_1_"
         x="0"
         y="90"
         width="612"
         height="612.001" /></defs><clipPath
       id="SVGID_2_"><use
         xlink:href="#SVGID_1_"
         overflow="visible"
         id="use3455" /></clipPath><g
       clip-path="url(#SVGID_2_)"
       id="g3457"><path
         fill-opacity="0"
         d="M0,90h612v612.001H0V90z"
         id="path3459" /><path
         fill="#FFFFFF"
         d="M-10.552,90h612v611.945h-612V90z"
         id="path3461" /><path
         fill-opacity="0"
         d="M8.932,100.158h592.502V693.99H8.932V100.158z"
         id="path3463" /><path
         fill="none"
         stroke="#000000"
         stroke-width="2"
         stroke-linejoin="round"
         stroke-miterlimit="10"
         d="M8.932,100.158h592.502    V693.99H8.932V100.158z"
         id="path3465"
         style="fill:#ff0000;fill-opacity:0.3019608" /><path
         fill="#FFFFFF"
         d="M497.223,161.319L497.223,161.319c0-14.729,12.25-26.67,27.362-26.67l0,0    c7.257,0,14.217,2.81,19.348,7.812c5.132,5.001,8.015,11.785,8.015,18.858l0,0c0,14.729-12.251,26.67-27.362,26.67l0,0    C509.473,187.989,497.223,176.049,497.223,161.319z"
         id="path3467" /><path
         fill="none"
         stroke="#000000"
         stroke-width="2"
         stroke-linejoin="round"
         stroke-miterlimit="10"
         d="M497.223,161.319    L497.223,161.319c0-14.729,12.25-26.67,27.362-26.67l0,0c7.257,0,14.217,2.81,19.348,7.812c5.132,5.001,8.015,11.785,8.015,18.858    l0,0c0,14.729-12.251,26.67-27.362,26.67l0,0C509.473,187.989,497.223,176.049,497.223,161.319z"
         id="path3469" /></g></g><rect
     x="58.5"
     y="154.5"
     fill="none"
     stroke="#231F20"
     stroke-width="2"
     stroke-miterlimit="10"
     width="386"
     height="142"
     id="rect3471"
     style="fill:#ffffff;fill-opacity:1" /><g
     id="g3473"><path
       d="M110.055,226.476v-3.938l22.758-9.609v4.195l-18.047,7.406l18.047,7.477v4.195L110.055,226.476z"
       id="path3475" /><path
       d="M137.617,230.461l4.289-0.375c0.203,1.719,0.676,3.129,1.418,4.23s1.895,1.992,3.457,2.672s3.32,1.02,5.273,1.02   c1.734,0,3.266-0.258,4.594-0.773s2.316-1.223,2.965-2.121s0.973-1.879,0.973-2.941c0-1.078-0.313-2.02-0.938-2.824   s-1.656-1.48-3.094-2.027c-0.922-0.359-2.961-0.918-6.117-1.676s-5.367-1.473-6.633-2.145c-1.641-0.859-2.863-1.926-3.668-3.199   s-1.207-2.699-1.207-4.277c0-1.734,0.492-3.355,1.477-4.863s2.422-2.652,4.313-3.434s3.992-1.172,6.305-1.172   c2.547,0,4.793,0.41,6.738,1.23s3.441,2.027,4.488,3.621s1.609,3.398,1.688,5.414l-4.359,0.328   c-0.234-2.172-1.027-3.813-2.379-4.922s-3.348-1.664-5.988-1.664c-2.75,0-4.754,0.504-6.012,1.512s-1.887,2.223-1.887,3.645   c0,1.234,0.445,2.25,1.336,3.047c0.875,0.797,3.16,1.613,6.855,2.449s6.23,1.566,7.605,2.191c2,0.922,3.477,2.09,4.43,3.504   s1.43,3.043,1.43,4.887c0,1.828-0.523,3.551-1.57,5.168s-2.551,2.875-4.512,3.773s-4.168,1.348-6.621,1.348   c-3.109,0-5.715-0.453-7.816-1.359s-3.75-2.27-4.945-4.09S137.68,232.758,137.617,230.461z"
       id="path3477" /><path
       d="M180.86,241.5v-14.555l-13.242-19.805h5.531l6.773,10.359c1.25,1.938,2.414,3.875,3.492,5.813   c1.031-1.797,2.281-3.82,3.75-6.07l6.656-10.102h5.297l-13.711,19.805V241.5H180.86z"
       id="path3479" /><path
       d="M203.055,241.5V207.14h6.844l8.133,24.328c0.75,2.266,1.297,3.961,1.641,5.086c0.391-1.25,1-3.086,1.828-5.508   l8.227-23.906h6.117V241.5h-4.383v-28.758l-9.984,28.758h-4.102l-9.938-29.25v29.25H203.055z"
       id="path3481" /><path
       d="M242.992,241.5V207.14h12.891c2.625,0,4.73,0.348,6.316,1.043s2.828,1.766,3.727,3.211s1.348,2.957,1.348,4.535   c0,1.469-0.398,2.852-1.195,4.148s-2,2.344-3.609,3.141c2.078,0.609,3.676,1.648,4.793,3.117s1.676,3.203,1.676,5.203   c0,1.609-0.34,3.105-1.02,4.488s-1.52,2.449-2.52,3.199s-2.254,1.316-3.762,1.699s-3.355,0.574-5.543,0.574H242.992z    M247.539,221.578h7.43c2.016,0,3.461-0.133,4.336-0.398c1.156-0.344,2.027-0.914,2.613-1.711s0.879-1.797,0.879-3   c0-1.141-0.273-2.145-0.82-3.012s-1.328-1.461-2.344-1.781s-2.758-0.48-5.227-0.48h-6.867V221.578z M247.539,237.445h8.555   c1.469,0,2.5-0.055,3.094-0.164c1.047-0.188,1.922-0.5,2.625-0.938s1.281-1.074,1.734-1.91s0.68-1.801,0.68-2.895   c0-1.281-0.328-2.395-0.984-3.34s-1.566-1.609-2.73-1.992s-2.84-0.574-5.027-0.574h-7.945V237.445z"
       id="path3483" /><path
       d="M273.813,224.765c0-5.703,1.531-10.168,4.594-13.395s7.016-4.84,11.859-4.84c3.172,0,6.031,0.758,8.578,2.273   s4.488,3.629,5.824,6.34s2.004,5.785,2.004,9.223c0,3.484-0.703,6.602-2.109,9.352s-3.398,4.832-5.977,6.246   s-5.359,2.121-8.344,2.121c-3.234,0-6.125-0.781-8.672-2.344s-4.477-3.695-5.789-6.398S273.813,227.781,273.813,224.765z    M278.5,224.836c0,4.141,1.113,7.402,3.34,9.785s5.02,3.574,8.379,3.574c3.422,0,6.238-1.203,8.449-3.609s3.316-5.82,3.316-10.242   c0-2.797-0.473-5.238-1.418-7.324s-2.328-3.703-4.148-4.852s-3.863-1.723-6.129-1.723c-3.219,0-5.988,1.105-8.309,3.316   S278.5,219.664,278.5,224.836z"
       id="path3485" /><path
       d="M312.344,241.5V207.14h4.547v30.305h16.922v4.055H312.344z"
       id="path3487" /><path
       d="M337.68,230.461l4.289-0.375c0.203,1.719,0.676,3.129,1.418,4.23s1.895,1.992,3.457,2.672s3.32,1.02,5.273,1.02   c1.734,0,3.266-0.258,4.594-0.773s2.316-1.223,2.965-2.121s0.973-1.879,0.973-2.941c0-1.078-0.313-2.02-0.938-2.824   s-1.656-1.48-3.094-2.027c-0.922-0.359-2.961-0.918-6.117-1.676s-5.367-1.473-6.633-2.145c-1.641-0.859-2.863-1.926-3.668-3.199   s-1.207-2.699-1.207-4.277c0-1.734,0.492-3.355,1.477-4.863s2.422-2.652,4.313-3.434s3.992-1.172,6.305-1.172   c2.547,0,4.793,0.41,6.738,1.23s3.441,2.027,4.488,3.621s1.609,3.398,1.688,5.414l-4.359,0.328   c-0.234-2.172-1.027-3.813-2.379-4.922s-3.348-1.664-5.988-1.664c-2.75,0-4.754,0.504-6.012,1.512s-1.887,2.223-1.887,3.645   c0,1.234,0.445,2.25,1.336,3.047c0.875,0.797,3.16,1.613,6.855,2.449s6.23,1.566,7.605,2.191c2,0.922,3.477,2.09,4.43,3.504   s1.43,3.043,1.43,4.887c0,1.828-0.523,3.551-1.57,5.168s-2.551,2.875-4.512,3.773s-4.168,1.348-6.621,1.348   c-3.109,0-5.715-0.453-7.816-1.359s-3.75-2.27-4.945-4.09S337.742,232.758,337.68,230.461z"
       id="path3489" /><path
       d="M392.922,226.476l-22.758,9.727v-4.195l18.023-7.477l-18.023-7.406v-4.195l22.758,9.609V226.476z"
       id="path3491" /></g><rect
     x="32.5"
     y="344.5"
     fill="#FFFFFF"
     stroke="#000000"
     stroke-width="2"
     stroke-miterlimit="10"
     width="78"
     height="294"
     id="rect3493" /><rect
     x="110.5"
     y="344.5"
     fill="#FFFFFF"
     stroke="#000000"
     stroke-width="2"
     stroke-miterlimit="10"
     width="78"
     height="294"
     id="rect3495" /><rect
     x="188.5"
     y="344.5"
     fill="#FFFFFF"
     stroke="#000000"
     stroke-width="2"
     stroke-miterlimit="10"
     width="78"
     height="294"
     id="rect3497" /><rect
     x="266"
     y="344.5"
     fill="#FFFFFF"
     stroke="#000000"
     stroke-width="2"
     stroke-miterlimit="10"
     width="78"
     height="294"
     id="rect3499" /><rect
     x="344"
     y="344.5"
     fill="#FFFFFF"
     stroke="#000000"
     stroke-width="2"
     stroke-miterlimit="10"
     width="78"
     height="294"
     id="rect3501" /><rect
     x="422"
     y="344.5"
     fill="#FFFFFF"
     stroke="#000000"
     stroke-width="2"
     stroke-miterlimit="10"
     width="78"
     height="294"
     id="rect3503" /><rect
     x="500"
     y="344.5"
     fill="#FFFFFF"
     stroke="#000000"
     stroke-width="2"
     stroke-miterlimit="10"
     width="78"
     height="294"
     id="rect3505" /><rect
     x="88"
     y="344.5"
     fill="#231F20"
     stroke="#000000"
     stroke-width="2"
     stroke-miterlimit="10"
     width="45"
     height="161"
     id="rect3507" /><rect
     x="166"
     y="344.5"
     fill="#231F20"
     stroke="#000000"
     stroke-width="2"
     stroke-miterlimit="10"
     width="45"
     height="161"
     id="rect3509" /><rect
     x="321.5"
     y="344.5"
     fill="#231F20"
     stroke="#000000"
     stroke-width="2"
     stroke-miterlimit="10"
     width="45"
     height="161"
     id="rect3511" /><rect
     x="399.5"
     y="344.5"
     fill="#231F20"
     stroke="#000000"
     stroke-width="2"
     stroke-miterlimit="10"
     width="45"
     height="161"
     id="rect3513" /><rect
     x="477.5"
     y="344.5"
     fill="#231F20"
     stroke="#000000"
     stroke-width="2"
     stroke-miterlimit="10"
     width="45"
     height="161"
     id="rect3515" /></svg>